# xmcd CD database file
#
# Track frame offsets:
#	183
#	20045
#	36273
#	46703
#	66205
#	81985
#	93908
#	112923
#	125420
#	138855
#	158735
#
# Disc length: 2323 seconds
#
# Revision: 3
# Processed by: cddbd v1.5PL3 Copyright (c) Steve Scherf et al.
# Submitted via: CDex 1.51
#
DISCID=8709110b,9d09110b
DTITLE=Nanci Griffith - Late Night Grande Hotel
DYEAR=1991
DGENRE=Folk
TTITLE0=Its Just Another Morning Here
TTITLE1=Late Night Grande Hotel
TTITLE2=Its Too Late
TTITLE3=Fields Of Summer
TTITLE4=Heaven
TTITLE5=The Power Lines
TTITLE6=Hometown Streets
TTITLE7=Down "N" Outer
TTITLE8=One Blade Shy Of A Sharp Edge
TTITLE9=The Sun, Moon And Stars
TTITLE10=San Diego Serenade
EXTD=YEAR: 1991
EXTT0=
EXTT1=
EXTT2=
EXTT3=
EXTT4=
EXTT5=
EXTT6=
EXTT7=
EXTT8=
EXTT9=
EXTT10=
PLAYORDER=
